<svg width="100" height="50" viewBox="0 0 200 100" fill="none" xmlns="http://www.w3.org/2000/svg">
<path fill-rule="evenodd" clip-rule="evenodd" d="M114.371 49.5458L105.805 32.4983L97.4302 16.7081L74.7249 58.3437L74.7104 58.3699L74.7013 58.386L74.6892 58.4071L74.6754 58.4307L74.6614 58.4541C74.962 58.634 75.232 58.8626 75.4531 59.1363C76.285 60.1664 76.1431 61.4884 75.1869 62.2786L76.7958 64.8371L89.0313 76.5348L98.7926 81.3611L109.355 80.6351L122.181 73.5463L128.41 65.8532L114.689 51.4687C114.143 50.8963 114.049 50.1508 114.371 49.5458ZM122.586 78.6318L112.405 84.2583V84.8224H140.35C139.965 84.2586 139.747 83.6135 139.747 82.9281C139.747 82.1473 140.03 81.4187 140.52 80.803C139.103 80.0023 138.105 78.8146 137.811 77.4522L130.038 71.7142L127.152 75.2785L127.589 75.7567L122.75 78.8119L122.586 78.6318ZM159.27 86.5063L149.823 83.4954C149.856 83.3101 149.873 83.1207 149.873 82.9281C149.873 82.1473 149.59 81.4187 149.1 80.8031C150.801 79.8419 151.899 78.323 151.899 76.6138C151.899 76.4649 151.89 76.3174 151.874 76.1716L163.049 71.0688L164.071 73.2047C164.017 73.4727 164.051 73.765 164.186 74.0474L166.315 78.4976C166.213 79.0386 166.474 79.5446 166.929 79.7801L168.119 82.2673L168.675 85.6404L168.632 85.706C168.269 86.2536 168.291 86.8836 168.628 87.3482H166.326C165.825 87.3482 165.391 87.6404 165.188 88.0639L164.622 88.1736C164.459 88.2052 164.305 88.2543 164.162 88.3185C163.98 88.0998 163.729 87.9274 163.421 87.8293L161.774 87.3043C161.477 86.8253 160.947 86.5063 160.342 86.5063H159.27ZM180.067 74.5607L173.574 84.3555L174.407 89.4092C174.459 89.7216 174.45 90.0271 174.39 90.3146C176.071 90.9511 177.215 92.2115 177.215 93.6625C177.215 95.7549 174.835 97.4511 171.899 97.4511C171.138 97.4511 170.414 97.3371 169.759 97.1318L156.83 97.8515C156.598 98.3603 156.084 98.714 155.489 98.714H142.529C142.031 99.2328 141.331 99.5558 140.555 99.5558H109.961C109.679 99.8359 109.288 100.006 108.861 99.9995C108.45 99.9929 108.082 99.8244 107.815 99.5558H106.618C106.524 99.5723 106.427 99.5802 106.329 99.5786C106.247 99.5772 106.167 99.5695 106.089 99.5558H62.9894C62.2411 99.5558 61.563 99.2555 61.069 98.7688L49.1437 97.3273C47.7439 97.4084 46.2945 97.4511 44.8101 97.4511C32.9255 97.4511 23.2911 94.7183 23.2911 91.3472C23.2911 89.5051 26.168 87.8536 30.7168 86.7345C30.5019 86.3394 30.3798 85.8866 30.3798 85.4053V83.8186C30.3798 83.0328 30.7052 82.3231 31.2287 81.8167C31.1774 81.8379 31.1246 81.8572 31.0702 81.8745C30.0251 82.206 28.8072 81.667 28.3499 80.6705L2.93023 25.2845C2.47291 24.288 2.94936 23.2115 3.99442 22.88C4.1625 22.8266 4.33506 22.7958 4.50821 22.7858C1.92551 22.1611 0 19.7354 0 16.8382C0 13.4671 2.60695 10.7343 5.82278 10.7343C9.03862 10.7343 11.6456 13.4671 11.6456 16.8382C11.6456 18.753 10.8044 20.462 9.48834 21.581L38.6239 66.7657C39.3531 66.2103 40.27 65.8795 41.2658 65.8795C41.3569 65.8795 41.4474 65.8822 41.5371 65.8877L48.0938 33.6664C46.858 32.5471 46.0759 30.8923 46.0759 29.0459C46.0759 25.6748 48.6829 22.942 51.8987 22.942C55.1145 22.942 57.7215 25.6748 57.7215 29.0459C57.7215 31.3502 56.5034 33.3563 54.7053 34.3952L69.3668 57.2607C69.41 56.9834 69.5039 56.7037 69.6522 56.4317L93.6095 12.5003C93.8055 12.1409 94.0763 11.8322 94.3949 11.584C92.4664 10.5894 91.1392 8.50908 91.1392 6.10385C91.1392 2.73278 93.7462 0 96.962 0C100.051 0 101.878 4.07838 102.69 5.89237C102.723 5.96683 102.755 6.03746 102.785 6.10385C103.385 7.4336 101.411 10.4699 98.9708 11.6879C99.4806 11.8809 99.9237 12.2505 100.172 12.7447L109.445 31.1991L119.156 49.5079C119.345 49.8646 119.404 50.2383 119.35 50.585L130.938 62.732L153.661 34.6687C151.996 33.5944 150.886 31.6665 150.886 29.4669C150.886 26.0958 153.493 23.363 156.709 23.363C159.925 23.363 162.532 26.0958 162.532 29.4669C162.532 32.2529 160.751 34.6029 158.318 35.3347C158.62 35.5557 158.853 35.8723 158.957 36.247L165.644 60.4411L176.56 46.5789C176.615 46.5087 176.676 46.4431 176.74 46.3823L184.823 33.7905L188.401 22.5094C188.612 21.8437 189.193 21.3563 189.856 21.2137C188.923 20.1313 188.354 18.6967 188.354 17.123C188.354 13.752 190.961 11.0192 194.177 11.0192C197.393 11.0192 200 13.752 200 17.123C200 20.0478 198.038 22.492 195.418 23.088C195.406 23.1455 195.391 23.2031 195.373 23.2608L192.818 31.3136C192.694 31.7056 192.441 32.0357 192.119 32.2701C192.136 32.4575 192.12 32.653 192.068 32.8501L186.695 53.2991C186.603 53.6495 186.409 53.9556 186.153 54.1928L181.631 71.4001C181.43 72.1665 180.744 72.721 179.98 72.8054C180.401 73.277 180.461 73.9672 180.067 74.5607ZM187.045 36.587C187.242 36.4766 187.421 36.3333 187.57 36.1631L184.084 49.4284C183.828 49.6656 183.635 49.9717 183.543 50.3222L178.169 70.7712C178.022 71.3308 178.166 71.8773 178.509 72.2645C177.898 72.311 177.303 72.625 176.963 73.1384L173.159 78.8772C173.044 78.4185 172.663 78.0591 172.153 77.9911L171.541 77.9096L171.059 76.9024C170.851 76.4679 170.449 76.1535 169.995 76.02L167.948 74.475L164.724 67.7372C164.797 67.6695 164.863 67.5946 164.919 67.5138C165.251 67.6859 165.636 67.7541 166.017 67.6814C166.871 67.5181 167.376 66.7061 167.144 65.8676L166.745 64.4231L177.238 51.0979C177.639 50.9512 177.996 50.685 178.228 50.3235L187.045 36.587ZM159.163 67.0351C159.94 66.6803 160.922 66.8895 161.517 67.4928C161.534 67.1523 161.688 66.8371 161.95 66.611L154.813 40.7901L146.468 51.097C146.438 51.3414 146.336 51.5867 146.156 51.8087L134.959 65.6366C135.204 65.6746 135.44 65.759 135.649 65.892L144.246 71.3683C144.432 71.3574 144.62 71.3519 144.81 71.3519C144.994 71.3519 145.176 71.357 145.356 71.3672C145.593 71.1305 145.916 70.9763 146.282 70.9535L151.262 70.6429L159.163 67.0351ZM112.647 89.8739H146.559C146.436 90.7528 146.939 91.5865 147.859 91.8867L148.364 92.0514L146.215 93.3603C146.068 93.4497 145.938 93.5513 145.825 93.6625H133.119C132.717 93.6625 132.353 93.823 132.088 94.0834H111.998L112.089 90.1786C112.089 90.1666 112.089 90.1547 112.089 90.1429C112.286 90.0741 112.473 89.9835 112.647 89.8739ZM109.048 90.2948H107.551C107.712 90.4421 107.84 90.6236 107.924 90.8277C108.202 90.5187 108.603 90.3235 109.047 90.3193L109.048 90.2948ZM105.504 90.2948H105.341C105.346 90.3058 105.352 90.3168 105.357 90.3279C105.364 90.3427 105.371 90.3576 105.378 90.3727C105.383 90.3839 105.388 90.3952 105.393 90.4066C105.401 90.3974 105.409 90.3883 105.418 90.3793L105.439 90.3576C105.451 90.3447 105.464 90.3321 105.477 90.3196C105.486 90.3113 105.495 90.303 105.504 90.2948ZM94.8605 90.2948L80.7367 90.2948C80.5612 90.7251 80.1699 91.0513 79.6604 91.1304L70.5355 92.5468L81.3133 93.7792C81.5958 93.8115 81.8465 93.9207 82.0478 94.0834H94.772L94.8605 90.2948ZM35.9494 85.4053C35.9494 85.4926 35.9454 85.579 35.9375 85.6643H36.9414C39.3786 85.3926 42.0329 85.2434 44.8101 85.2434C45.3168 85.2434 45.8195 85.2483 46.3174 85.2581C46.693 85.0157 47.1317 84.8627 47.6035 84.8293C47.5978 84.7576 47.595 84.6851 47.595 84.6119C47.595 83.3996 48.3834 82.3714 49.4756 82.0122C48.255 81.1249 47.1789 80.1507 46.4669 79.198C46.1007 79.2971 45.7149 79.35 45.3165 79.35C43.9488 79.35 42.7301 78.726 41.9418 77.7532C41.5434 77.6065 41.1866 77.3494 40.9406 77.0026L35.1156 81.7721C35.1045 81.7812 35.0933 81.7902 35.082 81.7991C35.6163 82.3065 35.9494 83.0237 35.9494 83.8186V85.4053ZM37.4684 72.6147C37.4684 72.4487 37.4782 72.2849 37.4973 72.1238C37.2989 71.773 37.1502 71.3916 37.0606 70.9887L6.07594 22.9364C5.992 22.9401 5.9076 22.942 5.82278 22.942C5.69417 22.942 5.56653 22.9377 5.43999 22.9291C5.99011 23.1335 6.46543 23.5407 6.71472 24.0839L31.8072 78.7571L37.6869 73.9427C37.5451 73.5253 37.4684 73.0788 37.4684 72.6147ZM48.145 71.9676C49.0727 71.313 50.19 70.9309 51.3924 70.9309C51.5337 70.9309 51.6739 70.9362 51.8128 70.9466C51.6553 70.0511 52.0728 69.1451 52.9864 68.6351L66.3456 61.1779L52.1392 39.0221L45.668 70.8234C45.6881 70.8651 45.7075 70.9073 45.7262 70.9497C46.648 71.0349 47.4851 71.4044 48.145 71.9676ZM88.2345 80.059L90.2399 81.9763C89.4692 82.1723 88.9421 82.8984 89.0241 83.7222C89.0674 84.1576 89.2731 84.5429 89.5754 84.8224H86.884H86.7869H59.7389C59.6714 83.9356 59.1812 83.167 58.4694 82.7175C58.3474 82.1691 58.1752 81.57 57.9974 80.9513L57.9973 80.9511C57.6303 79.6738 57.2392 78.3131 57.2162 77.1423C57.7238 77.0324 58.2039 76.8118 58.601 76.4806L70.0402 66.9399L73.8904 72.9445C74.4147 73.7621 75.402 74.2261 76.3637 74.1897L88.2345 80.059Z" fill="#000"/>
</svg>
