<svg width="122" height="80" viewBox="0 0 122 80" fill="none" xmlns="http://www.w3.org/2000/svg">
<rect x="-12" y="-23" width="147" height="126" rx="25" fill="#3222E7"/>
<path fill-rule="evenodd" clip-rule="evenodd" d="M69.7663 39.6366L64.5411 25.9986L59.4324 13.3665L45.5822 46.675L45.5733 46.6959L45.5678 46.7088L45.5604 46.7257L45.552 46.7446L45.5435 46.7633C45.7268 46.9072 45.8915 47.0901 46.0264 47.309C46.5339 48.1331 46.4473 49.1907 45.864 49.8229L46.8454 51.8697L54.3091 61.2278L60.2635 65.0889L66.7066 64.5081L74.5304 58.837L78.3301 52.6826L69.9603 41.175C69.6272 40.717 69.5699 40.1206 69.7663 39.6366ZM74.7775 62.9054L68.5671 67.4066V67.8579H85.6135C85.3787 67.4069 85.2457 66.8908 85.2457 66.3425C85.2457 65.7178 85.4183 65.135 85.7172 64.6424C84.8528 64.0018 84.2441 63.0517 84.0647 61.9618L79.3232 57.3714L77.5627 60.2228L77.8293 60.6054L74.8775 63.0495L74.7775 62.9054ZM97.1547 69.205L91.392 66.7963C91.4122 66.6481 91.4225 66.4966 91.4225 66.3425C91.4225 65.7178 91.2499 65.135 90.951 64.6425C91.9886 63.8735 92.6584 62.6584 92.6584 61.291C92.6584 61.1719 92.6529 61.0539 92.6431 60.9373L99.4599 56.855L100.083 58.5638C100.05 58.7782 100.071 59.012 100.153 59.2379L101.452 62.7981C101.39 63.2309 101.549 63.6357 101.827 63.8241L102.553 65.8138L102.892 68.5123L102.866 68.5648C102.644 69.0029 102.658 69.5069 102.863 69.8786H101.459C101.153 69.8786 100.889 70.1123 100.765 70.4511L100.419 70.5389C100.32 70.5642 100.226 70.6034 100.139 70.6548C100.028 70.4798 99.8747 70.3419 99.6868 70.2634L98.6821 69.8434C98.501 69.4602 98.1777 69.205 97.8086 69.205H97.1547ZM109.841 59.6486L105.88 67.4844L106.388 71.5274C106.42 71.7773 106.415 72.0217 106.378 72.2517C107.403 72.7609 108.101 73.7692 108.101 74.93C108.101 76.6039 106.649 77.9609 104.858 77.9609C104.394 77.9609 103.953 77.8697 103.553 77.7054L95.6663 78.2812C95.5248 78.6882 95.2112 78.9712 94.8483 78.9712H86.9427C86.6389 79.3862 86.2119 79.6446 85.7385 79.6446H67.0762C66.9042 79.8687 66.6657 80.0048 66.4052 79.9996C66.1545 79.9943 65.93 79.8595 65.7672 79.6446H65.037C64.9796 79.6578 64.9205 79.6642 64.8607 79.6629C64.8107 79.6618 64.7619 79.6556 64.7143 79.6446H38.4235C37.9671 79.6446 37.5534 79.4044 37.2521 79.015L29.9777 77.8618C29.1238 77.9267 28.2396 77.9609 27.3342 77.9609C20.0846 77.9609 14.2076 75.7746 14.2076 73.0778C14.2076 71.6041 15.9625 70.2829 18.7372 69.3876C18.6062 69.0715 18.5317 68.7093 18.5317 68.3242V67.0549C18.5317 66.4262 18.7302 65.8585 19.0495 65.4534C19.0182 65.4703 18.986 65.4858 18.9528 65.4996C18.3153 65.7648 17.5724 65.3336 17.2934 64.5364L1.78744 20.2276C1.50848 19.4304 1.79911 18.5692 2.4366 18.304C2.53913 18.2613 2.64439 18.2366 2.75001 18.2286C1.17456 17.7289 0 15.7883 0 13.4706C0 10.7737 1.59024 8.58744 3.5519 8.58744C5.51356 8.58744 7.10382 10.7737 7.10382 13.4706C7.10382 15.0024 6.59068 16.3696 5.78789 17.2648L23.5606 53.4126C24.0054 52.9682 24.5647 52.7036 25.1721 52.7036C25.2277 52.7036 25.2829 52.7058 25.3376 52.7102L29.3372 26.9331C28.5834 26.0377 28.1063 24.7138 28.1063 23.2367C28.1063 20.5398 29.6966 18.3536 31.6582 18.3536C33.6198 18.3536 35.2101 20.5398 35.2101 23.2367C35.2101 25.0802 34.4671 26.685 33.3702 27.5162L42.3137 45.8086C42.3401 45.5867 42.3974 45.363 42.4878 45.1454L57.1018 10.0002C57.2214 9.71272 57.3865 9.46576 57.5809 9.2672C56.4045 8.47152 55.5949 6.80726 55.5949 4.88308C55.5949 2.18622 57.1852 0 59.1468 0C61.0311 0 62.1456 3.2627 62.6409 4.7139C62.661 4.77346 62.6806 4.82997 62.6989 4.88308C63.0649 5.94688 61.8607 8.37592 60.3722 9.35032C60.6832 9.50472 60.9535 9.8004 61.1049 10.1958L66.7615 24.9593L72.6852 39.6063C72.8005 39.8917 72.8364 40.1906 72.8035 40.468L79.8722 50.1856L93.7332 27.735C92.7176 26.8755 92.0405 25.3332 92.0405 23.5735C92.0405 20.8766 93.6307 18.6904 95.5925 18.6904C97.5543 18.6904 99.1445 20.8766 99.1445 23.5735C99.1445 25.8023 98.0581 27.6823 96.574 28.2678C96.7582 28.4446 96.9003 28.6978 96.9638 28.9976L101.043 48.3529L107.702 37.2631C107.735 37.207 107.772 37.1545 107.811 37.1058L112.742 27.0324L114.925 18.0075C115.053 17.475 115.408 17.085 115.812 16.971C115.243 16.105 114.896 14.9574 114.896 13.6984C114.896 11.0016 116.486 8.81536 118.448 8.81536C120.41 8.81536 122 11.0016 122 13.6984C122 16.0382 120.803 17.9936 119.205 18.4704C119.198 18.5164 119.189 18.5625 119.178 18.6086L117.619 25.0509C117.543 25.3645 117.389 25.6286 117.193 25.8161C117.203 25.966 117.193 26.1224 117.161 26.2801L113.884 42.6393C113.828 42.9196 113.709 43.1645 113.553 43.3542L110.795 57.1201C110.672 57.7332 110.254 58.1768 109.788 58.2443C110.045 58.6216 110.081 59.1738 109.841 59.6486ZM114.097 29.2696C114.218 29.1813 114.327 29.0666 114.418 28.9305L112.291 39.5427C112.135 39.7325 112.017 39.9774 111.961 40.2578L108.683 56.617C108.593 57.0646 108.681 57.5018 108.89 57.8116C108.518 57.8488 108.155 58.1 107.947 58.5107L105.627 63.1018C105.557 62.7348 105.324 62.4473 105.013 62.3929L104.64 62.3277L104.346 61.5219C104.219 61.1743 103.974 60.9228 103.697 60.816L102.448 59.58L100.482 54.1898C100.526 54.1356 100.566 54.0757 100.601 54.011C100.803 54.1487 101.038 54.2033 101.27 54.1451C101.791 54.0145 102.099 53.3649 101.958 52.6941L101.714 51.5385L108.115 40.8783C108.36 40.761 108.578 40.548 108.719 40.2588L114.097 29.2696ZM97.0894 53.6281C97.5634 53.3442 98.1624 53.5116 98.5254 53.9942C98.5357 53.7218 98.6297 53.4697 98.7895 53.2888L94.4359 32.6321L89.3455 40.8776C89.3272 41.0731 89.265 41.2694 89.1552 41.447L82.325 52.5093C82.4744 52.5397 82.6184 52.6072 82.7459 52.7136L87.9901 57.0946C88.1035 57.0859 88.2182 57.0815 88.3341 57.0815C88.4463 57.0815 88.5574 57.0856 88.6672 57.0938C88.8117 56.9044 89.0088 56.781 89.232 56.7628L92.2698 56.5143L97.0894 53.6281ZM68.7147 71.8991H89.401C89.326 72.6022 89.6328 73.2692 90.194 73.5094L90.502 73.6411L89.1911 74.6882C89.1015 74.7598 89.0222 74.841 88.9533 74.93H81.2026C80.9574 74.93 80.7353 75.0584 80.5737 75.2667H68.3188L68.3743 72.1429C68.3743 72.1333 68.3743 72.1238 68.3743 72.1143C68.4945 72.0593 68.6085 71.9868 68.7147 71.8991ZM66.5193 72.2358H65.6061C65.7043 72.3537 65.7824 72.4989 65.8336 72.6622C66.0032 72.415 66.2478 72.2588 66.5187 72.2554L66.5193 72.2358ZM64.3574 72.2358H64.258C64.2611 72.2446 64.2647 72.2534 64.2678 72.2623C64.272 72.2742 64.2763 72.2861 64.2806 72.2982C64.2836 72.3071 64.2867 72.3162 64.2897 72.3253C64.2946 72.3179 64.2995 72.3106 64.305 72.3034L64.3178 72.2861C64.3251 72.2758 64.333 72.2657 64.341 72.2557C64.3465 72.249 64.352 72.2424 64.3574 72.2358ZM57.8649 72.2358H49.2494C49.1423 72.5801 48.9036 72.841 48.5928 72.9043L43.0267 74.0374L49.6011 75.0234C49.7734 75.0492 49.9264 75.1366 50.0492 75.2667H57.8109L57.8649 72.2358ZM21.9291 68.3242C21.9291 68.3941 21.9267 68.4632 21.9219 68.5314H22.5343C24.0209 68.3141 25.6401 68.1947 27.3342 68.1947C27.6432 68.1947 27.9499 68.1986 28.2536 68.2065C28.4827 68.0126 28.7503 67.8902 29.0381 67.8634C29.0347 67.8061 29.033 67.7481 29.033 67.6895C29.033 66.7197 29.5139 65.8971 30.1801 65.6098C29.4356 64.8999 28.7791 64.1206 28.3448 63.3584C28.1214 63.4377 27.8861 63.48 27.6431 63.48C26.8088 63.48 26.0654 62.9808 25.5845 62.2026C25.3415 62.0852 25.1238 61.8795 24.9738 61.6021L21.4205 65.4177C21.4137 65.425 21.4069 65.4322 21.4 65.4393C21.7259 65.8452 21.9291 66.419 21.9291 67.0549V68.3242ZM22.8557 58.0918C22.8557 57.959 22.8617 57.8279 22.8734 57.699C22.7523 57.4184 22.6616 57.1133 22.607 56.791L3.70632 18.3491C3.65512 18.3521 3.60364 18.3536 3.5519 18.3536C3.47344 18.3536 3.39558 18.3502 3.31839 18.3433C3.65397 18.5068 3.94391 18.8326 4.09598 19.2671L19.4024 63.0057L22.989 59.1542C22.9025 58.8202 22.8557 58.463 22.8557 58.0918ZM29.3685 57.5741C29.9343 57.0504 30.6159 56.7447 31.3494 56.7447C31.4356 56.7447 31.5211 56.749 31.6058 56.7573C31.5097 56.0409 31.7644 55.3161 32.3217 54.9081L40.4708 48.9423L31.8049 31.2177L27.8575 56.6587C27.8697 56.6921 27.8816 56.7258 27.893 56.7598C28.4553 56.8279 28.9659 57.1235 29.3685 57.5741ZM53.823 64.0472L55.0463 65.581C54.5762 65.7378 54.2547 66.3187 54.3047 66.9778C54.3311 67.3261 54.4566 67.6343 54.641 67.8579H52.9992H52.94H36.4407C36.3996 67.1485 36.1005 66.5336 35.6663 66.174C35.5919 65.7353 35.4869 65.256 35.3784 64.761L35.3784 64.7609C35.1545 63.739 34.9159 62.6505 34.9019 61.7138C35.2115 61.6259 35.5044 61.4494 35.7466 61.1845L42.7245 53.5519L45.0731 58.3556C45.393 59.0097 45.9952 59.3809 46.5819 59.3518L53.823 64.0472Z" fill="#FDF4F4"/>
</svg>
