<svg width="50" height="50" viewBox="0 0 257 267" fill="none" xmlns="http://www.w3.org/2000/svg">
<rect width="45" height="13.536" transform="matrix(0.999993 -0.00363072 -0.00363072 -0.999993 211.049 137.699)" fill="#C5C90A"/>
<ellipse cx="128" cy="125" rx="53" ry="52" fill="#C5C90A"/>
<rect width="45" height="13.536" transform="matrix(0.741608 0.670833 0.670833 -0.741608 185 205.038)" fill="#C5C90A"/>
<path d="M45.3837 238.204L74.2514 203.683L63.8677 195L35 229.52L45.3837 238.204Z" fill="#C5C90A"/>
<rect width="51.3855" height="7.98183" transform="matrix(-0.0323812 -0.999476 -0.999476 0.0323812 131.406 266.442)" fill="#C5C90A"/>
<path d="M199.045 82.6312L235.235 55.8859L227.19 45L191 71.7453L199.045 82.6312Z" fill="#C5C90A"/>
<rect width="45" height="13.536" transform="matrix(-0.739146 -0.673545 -0.673545 0.739146 64.3787 63.3095)" fill="#C5C90A"/>
<rect width="45" height="12.4868" transform="matrix(0.0196938 -0.999806 -0.999806 -0.0196938 136.484 45.2372)" fill="#C5C90A"/>
<rect width="45" height="7.44584" transform="matrix(-0.997903 -0.0647275 -0.0647275 0.997903 45.3876 126.913)" fill="#C5C90A"/>
</svg>
